<svg id="svg" fill="#000000" stroke="#000000" width="200px" height="200px" version="1.1" viewBox="144 144 512 512" xmlns="http://www.w3.org/2000/svg">
    <g id="IconSvg_bgCarrier" stroke-width="0"></g>
    <g id="IconSvg_tracerCarrier" stroke-linecap="round" stroke-linejoin="round" stroke="#CCCCCC"></g>
     <g id="IconSvg_iconCarrier">
      <g xmlns="http://www.w3.org/2000/svg">
  <path d="m329.15 529.89c-8.3711 0.09375-16.07 4.6172-20.23 11.883-4.1602 7.2695-4.1602 16.199 0 23.465 4.1602 7.2695 11.859 11.789 20.234 11.883 8.3711-0.09375 16.07-4.6133 20.23-11.883 4.1602-7.2695 4.1602-16.195 0-23.465-4.1602-7.2656-11.859-11.789-20.234-11.883zm0 31.488c-4.3008-0.0625-7.7539-3.5703-7.7539-7.8711 0-4.3047 3.4531-7.8086 7.7578-7.8711 4.3008 0.0625 7.7539 3.5664 7.7539 7.8711 0 4.3008-3.4531 7.8086-7.7578 7.8711z"></path>
  <path d="m577.36 465.41c89.062-64.906 17.035-202.66-87.691-165.52 9.5312-28.727 4.7227-60.277-12.93-84.863-17.652-24.582-46.016-39.223-76.277-39.371-30.266-0.14844-58.77 14.207-76.664 38.617s-23.012 55.914-13.766 84.73c-103.84-33.812-172.83 101.76-85.824 165.94-18.262 10.059-33.492 24.832-44.113 42.773-10.617 17.945-16.23 38.406-16.262 59.258v17.473c0.011718 4.4609 1.3555 8.8203 3.8672 12.508 2.5117 3.6914 6.0703 6.543 10.219 8.1875 64.387 25.641 136.16 25.602 200.51-0.10937 4.0703-1.6797 7.5469-4.5391 9.9883-8.2031 2.4375-3.668 3.7266-7.9805 3.7031-12.383 1.168-27.555-1.3906-55.938-16.918-79.422 16.84 1.6641 33.801 1.6484 50.637-0.046875-15.445 23.211-19.312 51.965-17.973 79.469 0.007812 4.4609 1.3555 8.8203 3.8672 12.508 2.5078 3.6914 6.0664 6.543 10.215 8.1875 64.387 25.637 136.16 25.602 200.52-0.10937 4.0703-1.6797 7.5469-4.5391 9.9844-8.2031 2.4375-3.668 3.7305-7.9805 3.707-12.383v-20.465c-0.14062-20.176-5.6602-39.949-15.996-57.277-10.34-17.328-25.113-31.582-42.801-41.289zm7 23.598v-0.003906c-33.242 20.27-74.352 22.797-109.82 6.7461 11.473-4.1367 24.855-5.75 33.727-14.398v-0.003906c17.738 2.957 35.949 0.6875 52.422-6.5273 8.5273 3.5781 16.5 8.3516 23.672 14.184zm-61.246-179.54c21.656 0 42.359 8.918 57.227 24.664 14.871 15.742 22.598 36.918 21.363 58.539-1.2383 21.617-11.328 41.773-27.898 55.719-16.57 13.945-38.152 20.445-59.668 17.973l0.003906-20.469c-0.089843-20.117-5.543-39.844-15.797-57.145-10.258-17.305-24.949-31.555-42.555-41.285 8.0078-7.125 15.328-14.98 21.871-23.469 13.258-9.4805 29.156-14.562 45.453-14.527zm-61.227 61.066 0.003906 0.003906c-18.523 11.438-39.852 17.52-61.621 17.57-21.766 0.050781-43.125-5.9258-61.699-17.277 7.1094-5.8789 15.039-10.691 23.539-14.285 24.203 10.695 51.805 10.652 75.973-0.12109 8.582 3.5195 16.602 8.2734 23.809 14.113zm-61.891-179.14c20.867 0.023437 40.879 8.3242 55.637 23.082 14.758 14.758 23.059 34.766 23.082 55.637 0.007812 78.953-104.4 108.16-145.77 41.387-32.426-50.973 6.2422-120.95 67.051-120.11zm-199.64 196.8c-1.1094-60.527 69.59-99.867 120.25-66.715h0.003906c6.5312 10.082 14.941 18.812 24.766 25.727-43.766 24.398-63.109 69.887-59.504 119.38-21.961 1.8672-43.703-5.5469-59.949-20.441-16.25-14.895-25.52-35.91-25.57-57.949zm40.379 86.254c16.09 7.2383 33.914 9.7344 51.375 7.1953 9.3242 8.5742 22.867 10.297 34.66 14.449-35.57 15.805-76.66 12.969-109.72-7.5742 7.1875-5.7891 15.164-10.527 23.688-14.07zm135.64 89.527v20.465c0.039063 2.5938-1.4844 4.9609-3.8633 5.9961-60.594 24.086-128.1 24.117-188.71 0.09375-2.5039-0.99609-4.168-3.3945-4.2227-6.0898v-17.473c0.046875-24.812 9.2109-48.746 25.75-67.242 21.367 14.16 46.363 21.863 71.996 22.188 25.629 0.32422 50.812-6.7422 72.531-20.359 1.3281 0.25 2.6172 0.47266 3.9102 0.69922 14.562 17.273 22.57 39.129 22.613 61.723zm-17.164-76.738v0.003906c-18.297-2.9727-36.215-7.9375-53.434-14.809-2.4609-1.0312-4.0977-3.4062-4.1875-6.0742v-17.473c0-24.609 8.9883-48.371 25.27-66.82 21.84 14.266 47.379 21.836 73.465 21.773 26.086-0.0625 51.586-7.7539 73.355-22.129 15.84 17.637 24.633 40.484 24.711 64.188v20.465-0.003906c-0.046876 2.5742-1.5469 4.8984-3.8711 5.9961-42.93 17.094-89.688 22.238-135.31 14.883zm261.2 97.203c0.042969 2.5938-1.4805 4.9609-3.8633 5.9961-60.59 24.086-128.09 24.117-188.71 0.09375-2.5078-0.99609-4.1719-3.3945-4.2266-6.0898v-17.473c0.035157-23.762 8.4648-46.75 23.805-64.898 1.4688-0.26562 2.9414-0.53906 4.3984-0.8125 21.605 13.668 46.684 20.836 72.25 20.66 25.562-0.17578 50.539-7.6953 71.953-21.66 15.609 17.566 24.281 40.219 24.395 63.719z"></path>
  <path d="m573.18 529.89c-8.375 0.09375-16.07 4.6172-20.23 11.883-4.1602 7.2695-4.1602 16.199 0 23.465 4.1602 7.2695 11.855 11.789 20.23 11.883 8.375-0.09375 16.07-4.6133 20.23-11.883 4.1602-7.2695 4.1602-16.195 0-23.465-4.1602-7.2656-11.855-11.789-20.23-11.883zm0 31.488c-4.3008-0.0625-7.7578-3.5703-7.7578-7.8711 0-4.3047 3.457-7.8086 7.7578-7.8711 4.3008 0.0625 7.7578 3.5664 7.7539 7.8711 0 4.3008-3.4531 7.8086-7.7539 7.8711z"></path>
  <path d="m426.45 435.42c0.09375 8.375 4.6133 16.074 11.883 20.234s16.195 4.1602 23.465 0c7.2656-4.1602 11.789-11.859 11.883-20.234-0.09375-8.375-4.6172-16.07-11.883-20.23-7.2695-4.1602-16.199-4.1602-23.465 0-7.2695 4.1602-11.789 11.859-11.883 20.23zm15.742 0c0.0625-4.3008 3.5703-7.7539 7.8711-7.7539 4.3047 0 7.8086 3.4531 7.8711 7.7539-0.0625 4.3047-3.5664 7.7578-7.8711 7.7578-4.3008 0-7.8086-3.4531-7.8711-7.7578z"></path>
 </g>

      </g>
      </svg>