<svg id="svg" fill="#000000" stroke="#000000" width="200px" height="200px" version="1.1" viewBox="144 144 512 512" xmlns="http://www.w3.org/2000/svg">
    <g id="IconSvg_bgCarrier" stroke-width="0"></g>
    <g id="IconSvg_tracerCarrier" stroke-linecap="round" stroke-linejoin="round" stroke="#CCCCCC"></g>
     <g id="IconSvg_iconCarrier">
      <g xmlns="http://www.w3.org/2000/svg">
  <path d="m636.16 641.08h-471.34c-2.7148 0-4.918-2.2031-4.918-4.918v-469.27c0-2.7148 2.2031-4.918 4.918-4.918 2.7188 0 4.9219 2.2031 4.9219 4.918v464.35h466.42c2.7148 0 4.918 2.2031 4.918 4.9219 0 2.7148-2.2031 4.918-4.918 4.918z"></path>
  <path d="m636.94 269.89c-2.7188 0-4.9219-2.2031-4.9219-4.9219l0.058594-34.301-34.004 0.078125c-2.7188 0-4.9219-2.2031-4.9219-4.9219 0-2.7148 2.2031-4.918 4.9219-4.918l38.945-0.13672c1.3008 0 2.5508 0.51562 3.4727 1.4336 0.92969 0.92578 1.4492 2.1836 1.4453 3.4961l-0.070313 39.25h0.003907c0.003906 1.3125-0.51172 2.5703-1.4375 3.4961-0.92578 0.92578-2.1836 1.4453-3.4922 1.4453z"></path>
  <path d="m164.82 514.64c-1.9727-0.019531-3.7461-1.2109-4.5039-3.0352-0.75391-1.8242-0.35156-3.9219 1.0312-5.332l93.223-93.234h0.003907c0.92188-0.92578 2.1758-1.4453 3.4805-1.4453 1.3086 0 2.5625 0.51953 3.4844 1.4453l43.504 43.512 170.72-170.69c0.92578-0.92578 2.1758-1.4453 3.4844-1.4453s2.5586 0.51953 3.4844 1.4453l43.297 43.297 106.19-106.27c1.9609-1.4688 4.6992-1.2734 6.4297 0.45703 1.7344 1.7305 1.9297 4.4727 0.45703 6.4297l-109.71 109.71c-0.92188 0.92578-2.1758 1.4492-3.4844 1.4492-1.3047 0-2.5586-0.52344-3.4805-1.4492l-43.297-43.297-170.65 170.73c-0.92188 0.92578-2.1758 1.4453-3.4805 1.4453-1.3086 0-2.5625-0.51953-3.4844-1.4453l-43.504-43.512-89.711 89.762c-0.91797 0.93359-2.1719 1.4648-3.4844 1.4766z"></path>
  <path d="m356.39 184.36h-160.2c-2.7188 0-4.9219-2.2031-4.9219-4.918 0-2.7188 2.2031-4.9219 4.9219-4.9219h160.2c2.7188 0 4.9219 2.2031 4.9219 4.9219 0 2.7148-2.2031 4.918-4.9219 4.918z"></path>
  <path d="m356.39 215.9h-160.2c-2.7188 0-4.9219-2.2031-4.9219-4.9219 0-2.7148 2.2031-4.918 4.9219-4.918h160.2c2.7188 0 4.9219 2.2031 4.9219 4.918 0 2.7188-2.2031 4.9219-4.9219 4.9219z"></path>
  <path d="m356.39 247.48h-160.2c-2.7188 0-4.9219-2.2031-4.9219-4.918 0-2.7188 2.2031-4.9219 4.9219-4.9219h160.2c2.7188 0 4.9219 2.2031 4.9219 4.9219 0 2.7148-2.2031 4.918-4.9219 4.918z"></path>
  <path d="m276.29 278.96h-80.105c-2.7188 0-4.9219-2.2031-4.9219-4.918 0-2.7188 2.2031-4.9219 4.9219-4.9219h80.109-0.003907c2.7188 0 4.9219 2.2031 4.9219 4.9219 0 2.7148-2.2031 4.918-4.9219 4.918z"></path>
  <path d="m525.6 365.33c-2.7188 0-4.9219-2.2031-4.9219-4.9219v-0.49219 0.003906c0-2.7188 2.2031-4.9219 4.9219-4.9219 2.7148 0 4.918 2.2031 4.918 4.9219v0.49219-0.003906c0 1.3086-0.51562 2.5586-1.4414 3.4805-0.92188 0.92188-2.1719 1.4414-3.4766 1.4414z"></path>
  <path d="m525.6 603.94c-2.7188 0-4.9219-2.2031-4.9219-4.918v-0.98438c0-2.7188 2.2031-4.9219 4.9219-4.9219 2.7148 0 4.918 2.2031 4.918 4.9219v0.98438c0 1.3047-0.51562 2.5547-1.4414 3.4766-0.92188 0.92578-2.1719 1.4414-3.4766 1.4414zm0-19.887c-2.7188 0-4.9219-2.2031-4.9219-4.918v-0.98438c0-2.7188 2.2031-4.9219 4.9219-4.9219 2.7148 0 4.918 2.2031 4.918 4.9219v0.98438c0 1.3047-0.51562 2.5547-1.4414 3.4766-0.92188 0.92578-2.1719 1.4414-3.4766 1.4414zm0-19.887c-2.7188 0-4.9219-2.1992-4.9219-4.918v-0.98438c0-2.7188 2.2031-4.9219 4.9219-4.9219 2.7148 0 4.918 2.2031 4.918 4.9219v0.98438c0 2.7188-2.2031 4.918-4.918 4.918zm0-19.887c-2.7188 0-4.9219-2.1992-4.9219-4.918v-0.98438c0-2.7188 2.2031-4.9219 4.9219-4.9219 2.7148 0 4.918 2.2031 4.918 4.9219v0.98438c0 2.7188-2.2031 4.918-4.918 4.918zm0-19.875c-2.7188 0-4.9219-2.2031-4.9219-4.9219v-0.98438 0.003906c0-2.7188 2.2031-4.9219 4.9219-4.9219 2.7148 0 4.918 2.2031 4.918 4.9219v0.98438-0.003906c0 2.7188-2.2031 4.9219-4.918 4.9219zm0-19.887c-2.7188 0-4.9219-2.2031-4.9219-4.9219v-0.98438 0.003907c0-2.7188 2.2031-4.9219 4.9219-4.9219 2.7148 0 4.918 2.2031 4.918 4.9219v0.98437-0.003906c0 2.7188-2.2031 4.9219-4.918 4.9219zm0-19.887c-2.7188 0-4.9219-2.2031-4.9219-4.9219v-0.98438 0.003907c0-2.7188 2.2031-4.9219 4.9219-4.9219 2.7148 0 4.918 2.2031 4.918 4.9219v0.98438-0.003906c-0.003906 2.7148-2.207 4.9102-4.918 4.9102zm0-19.875v-0.003906c-2.7188 0-4.9219-2.1992-4.9219-4.918v-0.98438c0-2.7188 2.2031-4.918 4.9219-4.918 2.7148 0 4.918 2.1992 4.918 4.918v0.98438c0 2.7188-2.2031 4.918-4.918 4.918zm0-19.887v-0.003906c-2.7188 0-4.9219-2.1992-4.9219-4.918v-0.98438c0-2.7188 2.2031-4.918 4.9219-4.918 2.7148 0 4.918 2.1992 4.918 4.918v0.98438c0 2.7188-2.2031 4.918-4.918 4.918zm0-19.887v-0.003906c-2.7188 0-4.9219-2.1992-4.9219-4.918v-0.98438c0-2.7188 2.2031-4.918 4.9219-4.918 2.7148 0 4.918 2.1992 4.918 4.918v0.98438c0 2.7188-2.2031 4.918-4.918 4.918zm0-19.887v-0.003906c-2.7188 0-4.9219-2.1992-4.9219-4.918v-0.98438c0-2.7188 2.2031-4.918 4.9219-4.918 2.7148 0 4.918 2.1992 4.918 4.918v0.98438c0 2.7188-2.2031 4.918-4.918 4.918zm0-19.875v-0.003906c-2.7188 0-4.9219-2.2031-4.9219-4.9219v-0.98438 0.003906c0-2.7188 2.2031-4.9219 4.9219-4.9219 2.7148 0 4.918 2.2031 4.918 4.9219v0.98438-0.003906c0.007813 1.3086-0.51172 2.5664-1.4336 3.4922-0.92188 0.92969-2.1758 1.4492-3.4844 1.4492z"></path>
  <path d="m525.6 623.37c-2.7188 0-4.9219-2.2031-4.9219-4.9219v-0.49219 0.003906c0-2.7188 2.2031-4.9219 4.9219-4.9219 2.7148 0 4.918 2.2031 4.918 4.9219v0.49219-0.003907c0 1.3086-0.51562 2.5586-1.4414 3.4805-0.92188 0.92188-2.1719 1.4414-3.4766 1.4414z"></path>
  <path d="m305.18 494.95c-2.7188 0-4.918-2.1992-4.918-4.918v-0.49219c0-2.7188 2.1992-4.9219 4.918-4.9219s4.9219 2.2031 4.9219 4.9219v0.49219c0 1.3047-0.51953 2.5547-1.4414 3.4805-0.92578 0.92188-2.1758 1.4375-3.4805 1.4375z"></path>
  <path d="m305.18 602.41c-2.7188 0-4.918-2.1992-4.918-4.918v-0.98438c0-2.7188 2.1992-4.9219 4.918-4.9219s4.9219 2.2031 4.9219 4.9219v0.98438c0 1.3047-0.51953 2.5547-1.4414 3.4805-0.92578 0.92188-2.1758 1.4375-3.4805 1.4375zm0-21.492v0.003907c-2.7188 0-4.918-2.2031-4.918-4.9219v-0.98438c0-2.7148 2.1992-4.918 4.918-4.918s4.9219 2.2031 4.9219 4.918v0.98438c0 1.3047-0.51953 2.5586-1.4414 3.4805-0.92578 0.92188-2.1758 1.4414-3.4805 1.4414zm0-21.492v0.003906c-2.7188 0-4.918-2.2031-4.918-4.918v-0.98437c0-2.7188 2.1992-4.9219 4.918-4.9219s4.9219 2.2031 4.9219 4.9219v0.98437c-0.011718 2.707-2.2109 4.8984-4.9219 4.8984zm0-21.492v0.007812c-2.7188 0-4.918-2.2031-4.918-4.9219v-0.98438c0-2.7148 2.1992-4.918 4.918-4.918s4.9219 2.2031 4.9219 4.918v0.98438c0 2.7188-2.2031 4.9219-4.9219 4.9219zm0-21.492v0.007812c-2.7188 0-4.918-2.2031-4.918-4.918v-0.98438c0-2.7188 2.1992-4.9219 4.918-4.9219s4.9219 2.2031 4.9219 4.9219v0.98438c0 2.7148-2.2031 4.918-4.9219 4.918z"></path>
  <path d="m305.18 623.37c-2.7188 0-4.918-2.2031-4.918-4.9219v-0.49219 0.003906c0-2.7188 2.1992-4.9219 4.918-4.9219s4.9219 2.2031 4.9219 4.9219v0.49219-0.003907c0 1.3086-0.51953 2.5586-1.4414 3.4805-0.92578 0.92188-2.1758 1.4414-3.4805 1.4414z"></path>
 </g>

      </g>
      </svg>