<svg id="svg" fill="#000000" stroke="#000000" width="200px" height="200px" version="1.1" viewBox="144 144 512 512" xmlns="http://www.w3.org/2000/svg">
    <g id="IconSvg_bgCarrier" stroke-width="0"></g>
    <g id="IconSvg_tracerCarrier" stroke-linecap="round" stroke-linejoin="round" stroke="#CCCCCC"></g>
     <g id="IconSvg_iconCarrier">
      <path xmlns="http://www.w3.org/2000/svg" d="m603.61 505.14c-20.051 39.227-50.93 71.676-89.312 93.832-35.113 20.277-74.797 30.793-114.73 30.793-13.047 0-26.121-1.125-39.07-3.3984-52.566-9.2227-100.52-36.926-135.03-78.004l-0.070312-0.11719c-0.085938-0.19922-0.17969-0.40625-0.29297-0.60156-0.98047-1.7031-2.8359-2.7656-4.7773-2.6992-1.3633-0.0625-2.6719 0.37891-3.7031 1.2305-0.097656 0.082031-0.19531 0.17578-0.29297 0.26562l-0.13281 0.10938-18.328 10.578 0.003906-72.082 62.43 36.047-15.531 8.957c-0.69531 0.22656-1.3203 0.58203-1.8711 1.0625-2.2422 1.9531-2.4844 5.3711-0.53516 7.6172 39.617 45.547 97.152 71.668 157.86 71.668h0.019532c36.641 0 72.773-9.6758 104.49-27.988 70.438-40.664 111.17-119.28 103.77-200.27l-0.035156-0.42188 18.824-4.1758 0.054687 0.53516c4.4922 43.965-3.7188 87.902-23.734 127.07zm-304.32-289.85c87.625-48.035 197.53-27.223 261.33 49.48 0.92188 1.1055 1.3555 2.5078 1.2227 3.9414s-0.81641 2.7344-1.9219 3.6562c-0.57031 0.47266-1.2031 0.81641-1.8906 1.0234l-15.727 8.6094 61.617 37.422 1.5977-72.074-18.547 10.168-0.097656 0.070312c-0.10938 0.10156-0.22266 0.20703-0.33984 0.29688-1.0273 0.8125-2.3398 1.207-3.6719 1.1445h-0.046875c-1.9688 0-3.7773-1.0703-4.7305-2.8008-0.10938-0.19531-0.19922-0.39453-0.27734-0.60156l-0.070313-0.125c-33.594-41.832-80.926-70.586-133.27-80.969-52.379-10.391-107.2-1.8711-154.38 23.988-38.859 21.297-70.457 53.055-91.363 91.824-20.879 38.711-30.055 82.461-26.547 126.52l0.042968 0.53516 18.918-3.7578-0.03125-0.41797c-5.6055-81.137 36.859-158.83 108.18-197.93zm-23.551 150.55-0.55078-1.1836-0.34375 1.2578c-3.0195 11.078-4.543 22.531-4.543 34.055 0 71.512 58.18 129.69 129.69 129.69 71.512 0 129.68-58.176 129.68-129.68 0-3.3125-0.12891-6.6523-0.375-9.9219l-0.019532-0.28906-0.26562-0.11328c-1.4141-0.59766-2.7188-1.6953-3.8906-3.2734-1.1406-1.5391-2.3398-3.7188-3.6133-6.0352-1.793-3.2656-4.0234-7.332-6.4531-10.34-1.6406-2.0312-3.582-3.8594-5.7695-5.4375l-0.58984-0.42578-0.15234 0.71484c-0.54688 2.543-1.5781 4.9062-3.0703 7.0156-1.7539 2.4844-4.1602 4.6875-6.2891 6.6328-0.67969 0.61719-1.625 1.4961-2.3086 2.1797l-0.22656 0.22656 0.12891 0.29688c0.17969 0.42188 0.4375 1.0742 0.63672 1.8711 0.83984 3.3398 0.18359 7.2031-2.1758 12.898-0.48828 1.1602-1.0469 2.4219-1.6445 3.7578-1.5664 3.5117-3.3477 7.4922-4.1836 11.121-0.54688 2.3633-0.73438 4.7383-0.95703 7.5156-0.23828 2.9102-0.5 6.207-1.2695 9.8359-1.2812 6.0195-3.9023 12.73-6.4375 19.215-0.4375 1.1172-0.86719 2.2266-1.2969 3.332l-0.73047 1.9141c-2.7852 7.2734-5.418 14.148-9.7812 19.082-4.0039 4.5352-9.3906 7.2422-14.406 7.2422-1.8711 0-3.625-0.375-5.2031-1.1211-5.4492-2.5664-7.6133-8.625-9.707-14.488l-0.82422-2.2773c-1.9492-5.3711-3.9648-10.926-3.4688-16.719 0.29687-3.4648 1.4531-6.5586 2.5039-9.3789 0.71094-1.918 1.3828-3.7305 1.5938-5.2539 0.44531-3.1875-0.92969-6.7695-2.3438-9.8516-0.74219-1.6289-1.4805-3.0938-2.1953-4.5078l-0.054687-0.10938c-0.83984-1.6562-1.6289-3.2227-2.2266-4.6797-1.1602-2.8477-1.4688-4.9805-1.8008-7.2969l-0.078125-0.51953c-0.082031-0.53516-0.20703-1.3477-0.34766-2.0156l-0.085938-0.40625-0.41016 0.03125c-0.69531 0.050782-1.5938 0.16406-2.6797 0.33594l-0.83984 0.13281c-3.6406 0.58203-8.6211 1.3789-13.156-0.46094-5.1445-2.0938-8.457-7.0156-11.016-11.551-1.7383-3.0898-4.7969-8.9961-5.7305-13.828-0.73438-3.7891-0.082031-6.457 0.37109-8.2891 0.066406-0.27734 0.13281-0.55078 0.18359-0.81641 0.054687-0.30859 0.09375-0.61719 0.13281-0.94141l0.027344-0.24609c0.16406-1.5078 0.39453-3.5664 1.5234-6.7695 1.0469-2.9727 4.1172-10.379 9.9414-14.887 4.7656-3.6914 10.523-4.832 16.09-5.9375l1.6289-0.32422c1.8203-0.375 3.6602-0.77734 5.4922-1.1758l0.28125-0.0625c3.8711-0.84375 7.875-1.7227 11.559-2.2422 2.8984-0.41016 5.5-0.60547 7.793-0.77734 1.8359-0.14062 3.5664-0.26562 4.7539-0.47656 0.12891-0.027344 0.25-0.046875 0.36328-0.070312l0.63281-0.14063-0.32031-0.56641c-0.10156-0.17969-0.23828-0.39453-0.41016-0.62891-1.3672-1.8164-4.293-4.0156-6.6523-4.9961-2.293-0.96484-4.4023-0.96484-6.9141-0.875-2.7617 0.097656-5.5273 0.32031-10.57 0.83203l-0.74219 0.078124c-7.9492 0.8125-13.855 1.2852-17.566-0.042968-2.6797-0.96094-4.5078-2.9727-5.0234-5.5195-0.65625-3.2266 0.89453-6.6719 4.4766-9.957 1.2891-1.1836 2.6484-2.1523 3.957-3.0898l-0.27734-0.38672 0.35938 0.32812c1.5391-1.0938 2.9922-2.1328 4.0195-3.2969 1.4805-1.6719 2.7695-4.3906 3.6445-7.6602 0.16797-0.64453 0.3125-1.2578 0.45312-1.8516 0.58984-2.543 1.2578-5.4336 3.5078-8.5078 1.5312-2.0938 5.0469-5.9219 11.406-8.0234l1.3711-0.45312-1.3711-0.45312c-13.078-4.3242-26.734-6.5117-40.594-6.5117-0.34766 0-0.69531 0.003907-1.0391 0.011719l-2.4336 0.027344 1.6602 0.87891c0.65234 0.34766 1.1719 0.65234 1.6211 0.96484 2.7969 1.9375 4.5508 4.582 5.0781 7.6484 0.64844 3.7461-0.55078 7.7617-3.5586 11.934-3.8672 5.3555-10.984 11.223-18.172 12.246-5.6914 0.81641-10.398-1.5078-14.188-3.3789-0.85938-0.42578-1.8359-0.91016-2.7031-1.2734-2.5742-1.0938-4.1602-1.1836-4.7305-1.168l-0.33984 0.011719-0.10156 0.32031c-0.25 0.78516-0.52344 2.3086-0.375 5.1133 0.035156 0.61719 0.085937 1.2383 0.14062 1.8516l0.03125 0.39453c0.29297 3.5781 0.66406 8.0312-1.6484 12.098-1.6094 2.8359-4.207 4.9297-6.7188 6.9492l-0.10156 0.082031c-1.4531 1.1758-2.957 2.3906-4.2773 3.7461-2.1445 2.207-4.1484 5.1016-6.0859 7.8945l-0.085938 0.12891c-1.1992 1.7266-2.3281 3.3555-3.5117 4.8672-2.1914 2.793-4.3711 4.8906-6.1367 6.5898-0.89062 0.85156-1.7344 1.6641-2.4336 2.4375-1.6953 1.8594-2.5664 3.4766-2.8125 5.2344-0.27344 1.9727 0.14453 4.7539 1.168 7.8281 0.97656 2.9453 2.4688 5.9883 4.3125 8.8125 2.0039 3.0625 3.9648 5.1289 6.7539 7.125 1.0234 0.73047 2.1836 1.4648 3.6445 2.3906 3.1523 1.9961 6.7188 4.25 9.7148 7.3359 2.1992 2.2617 3.8906 4.7539 5.5312 7.1602 1.5117 2.2148 3.0703 4.5078 5.0312 6.6172 1.9648 2.1094 4.4883 4.207 6.9648 6.2656 2.7305 2.2734 5.3047 4.4219 7.2031 6.6367 4.8984 5.707 4.4727 11.137 3.4766 17.133-0.53516 3.2031-2.543 14.121-5.8398 20.121-2.293 4.168-5.0781 5.8047-6.9414 6.8984l-0.09375 0.054687c-0.53125 0.3125-0.89062 0.53125-1.0586 0.68359-0.75391 0.71484-1.6914 3.5273-3.1367 9.3867l-0.60156 2.4688c-1.7031 6.9727-3.8203 15.645-6.5586 20.984-3.1172 6.0703-7.5586 9.0234-13.582 9.0234-5.2109 0-8.9961-2.1445-11.254-6.375-1.8906-3.5586-2.7383-8.457-3.8203-17.438-0.23047-1.8984-0.46875-3.957-0.71094-6.082-0.69531-6.0625-1.5586-13.598-2.4258-18.602-1.1445-6.582-2.3047-8.625-3.5898-10.453-0.60156-0.86328-1.3711-1.8203-2.0703-2.6953-1.6914-2.1133-3.6094-4.5078-5.3242-7.6992-2.7305-5.0703-4.5742-11.488-4.8125-16.758-0.17578-3.7852 0.45703-7.0898 0.97656-9.7773l0.0625-0.32422c0.19531-1.0586 0.38672-2.0664 0.49219-2.9766 0.28125-2.457 0.11328-4.6953-1.6367-7.6328-1.957-3.2891-5.7148-7.2422-9.5742-10.07-2.7773-2.0312-5.6094-3.4922-8.3477-4.9062l-0.11328-0.054687c-1.1562-0.59766-2.2461-1.1602-3.3008-1.7539-3.9727-2.2305-7.2266-4.8203-10.227-10.188-0.52344-0.89062-1.0586-1.9375-1.6445-3.1992zm78.621-76.086c3.7539-3.043 9.4688-3.168 16.102-0.34375 1.043 0.4375 2.0547 0.94141 3.0391 1.4258l0.24219 0.11719c2.9414 1.4492 5.4766 2.6953 7.8672 2.3633 3.2383-0.46875 8.1445-4 10.941-7.875 1.4297-1.9727 1.7344-3.2812 1.6797-3.7383l-0.042969-0.43359h-0.25781c-0.066406-0.054688-0.16406-0.13281-0.29297-0.22266-1.9688-1.3633-7.9258-3.1094-18.246-3.5664-7.5195-0.32813-14.164 0.23828-20.023 0.73437l-0.125 0.027344c-33.312 12.285-60.461 38.07-74.48 70.742l-0.078125 0.17578 0.066406 0.17969c1.8867 5.1562 4.0664 10.949 6.0312 14.473 1.832 3.2695 3.3555 4.5078 6.0938 6.0469 0.90625 0.50781 1.9219 1.0352 3.0625 1.6211l0.12891 0.066406c2.793 1.4414 6.2617 3.2344 9.6562 5.7227 5.0117 3.6641 9.793 8.75 12.477 13.262 2.7148 4.5703 3.6914 9.1523 3.0742 14.41-0.16406 1.4258-0.4375 2.8281-0.67188 4.0703l-0.019531 0.097656c-0.45313 2.4023-0.88281 4.6641-0.76953 7.1562 0.16406 3.6797 1.5469 8.4414 3.5312 12.133 1.25 2.3281 2.7656 4.2266 4.2656 6.1016l0.070313 0.085937c0.80078 1.0039 1.6289 2.0352 2.3789 3.1094 2.7305 3.875 4.1914 7.8906 5.3984 14.805 0.92187 5.2695 1.7695 12.684 2.5195 19.227 0.23828 2.1133 0.47266 4.1523 0.69922 6.0234 0.68359 5.6953 1.4531 11.445 2.6328 13.648 0.10156 0.19531 0.19141 0.30859 0.23047 0.37109l0.09375 0.125 0.14453 0.046875c0.14453 0.046875 0.5 0.125 1.25 0.125 1.4258 0 2.4727-0.22266 3.9805-3.1562 2.1758-4.2266 4.2109-12.586 5.7031-18.688l0.59766-2.4336c1.7695-7.1367 3.0742-11.68 6.2109-14.641 1.0898-1.0352 2.207-1.6797 3.1094-2.2109 1.3281-0.78125 2.0625-1.207 2.9258-2.7812 1.6055-2.9219 3.4766-9.6289 4.6523-16.691 0.91406-5.5078 0.5-6.5508-1.0234-8.332-1.3281-1.543-3.5742-3.4141-5.9883-5.4219-2.5664-2.1367-5.4766-4.5664-7.8828-7.1445-2.4883-2.6719-4.3711-5.4297-6.0703-7.9219-1.5117-2.2227-2.8164-4.1328-4.3398-5.6953-2.1289-2.1836-5.0039-4.0039-7.7969-5.7734-1.3008-0.82422-2.7695-1.7539-4.0977-2.6992-3.8555-2.7539-6.793-5.8398-9.5117-10-2.3789-3.6328-4.2422-7.4375-5.5312-11.309-1.582-4.75-2.1289-9.0273-1.6211-12.719 0.55078-3.9414 2.3594-7.5469 5.5352-11.031 0.91406-1.0039 1.875-1.9297 2.9141-2.9297l0.082031-0.078125c1.6484-1.5898 3.3516-3.2266 5.0586-5.4102 1.0273-1.3125 2.1367-2.9219 3.2148-4.4727 2.0781-3.0078 4.4375-6.4219 7.2188-9.2852 1.8086-1.8555 3.6797-3.3711 5.3359-4.7109 1.7344-1.3984 3.5273-2.8438 4.1172-3.8828 0.67188-1.1758 0.47656-3.4688 0.27344-5.9062-0.078125-0.84375-0.14062-1.6914-0.19141-2.5391-0.37109-7 1.0898-11.723 4.457-14.449zm137.53 80.785c1.7344-1.5898 3.6953-3.3867 4.7617-4.8984 1.582-2.2344 1.582-4.418 1.582-6.5195 0-1.9062 0-5.1055 2.8516-7.0625 2.9102-2.0117 6.1836-0.75 7.2656-0.33594 3.8594 1.4805 10.117 5.3555 15.031 11.402l1.5234 1.875-0.69531-2.3125c-9.4805-31.535-30.434-58.094-59.004-74.785l-0.19141-0.0625c-7.4961-0.77734-14.074-1.3477-18.734-0.48437-5.125 0.94531-7.5664 3.6289-8.3867 4.7383-0.90625 1.2383-1.207 2.4258-1.7109 4.5859l-0.027344 0.097656c-0.16016 0.66797-0.32031 1.3633-0.51562 2.082-0.91406 3.4336-2.6953 8.3125-5.9883 12.035-1.3984 1.5898-2.9141 2.793-4.082 3.6602l-1.332 0.99609 1.6602-0.14062c1.7891-0.14844 3.4805-0.32031 4.6328-0.4375l0.74609-0.078125c5.2578-0.53516 8.2031-0.76562 11.266-0.87891 3.3008-0.125 7.1875-0.10156 11.488 1.7031 4.2109 1.7695 8.5742 5.0938 11.113 8.4844 2.8164 3.7578 3.6289 8.0469 2.2344 11.766-1.3633 3.6211-4.4727 5.8867-9.25 6.7344-1.7031 0.30859-3.5977 0.44531-5.8516 0.61328l-0.11328 0.011719c-2.0938 0.16016-4.4688 0.33984-6.9609 0.69531-3.3672 0.47656-7.0938 1.2969-11.059 2.1641l-1.2383 0.26562c-1.4688 0.32031-2.9414 0.64453-4.4023 0.9375l-1.6953 0.33984c-4.7344 0.94531-8.8203 1.7578-11.562 3.8828-2.9102 2.25-5.2031 6.6172-6.375 9.9492-0.70312 1.9961-0.82812 3.0898-0.97266 4.3594l0.47266 0.054687-0.48438 0.046875c-0.066407 0.57422-0.14453 1.2344-0.27734 1.9219-0.09375 0.46875-0.20703 0.94141-0.32812 1.4453-0.3125 1.2734-0.52344 2.1133-0.23828 3.5781 0.45703 2.3711 2.1953 6.4258 4.543 10.578 1.4297 2.5352 3.5664 5.9961 5.6758 6.8516 1.7578 0.71484 4.8906 0.21094 7.4023-0.19531l0.875-0.14062c3.2891-0.50781 8.2578-1.2852 11.828 1.7734 3.0742 2.6328 3.6758 6.8516 4.0781 9.6445l0.042969 0.30469c0.28125 2 0.4375 3.1016 1.1055 4.7305 0.41797 1.0195 1.0625 2.2969 1.8086 3.7852l0.24219 0.48438c0.6875 1.3672 1.4648 2.9219 2.2461 4.625 2.0547 4.5078 4.0469 9.9102 3.2188 15.836-0.375 2.6836-1.2891 5.1562-2.2109 7.6289-0.85156 2.293-1.6602 4.457-1.8203 6.4141-0.29297 3.4531 1.2383 7.6758 2.8633 12.137l0.85156 2.375c1.3828 3.8711 2.8438 7.6953 4.1133 8.293 0.16406 0.078125 0.39453 0.11719 0.67188 0.11719 1.3633 0 3.9219-0.98828 6.25-3.6289 3.0625-3.4688 5.3555-9.4375 7.7891-15.793l2.0547-5.3125c2.375-6.0859 4.8359-12.379 5.9375-17.539 0.62891-2.9453 0.84375-5.625 1.0703-8.4961 0.23047-2.8984 0.47656-5.8984 1.1992-9.0312 1.0742-4.6367 3.0703-9.1094 4.832-13.059l-0.4375-0.19531 0.47656 0.097656c0.54688-1.2148 1.0625-2.3633 1.5-3.4336 1.7891-4.3242 1.7383-5.7852 1.6719-6.1758-0.019531-0.078125-0.11719-0.30859-0.22266-0.52344l-0.078125-0.17578c-0.71875-1.5781-2.4062-5.2656 0.58203-9.5586 1.1367-1.5977 2.7812-3.1055 4.6875-4.8477z"></path>

      </g>
      </svg>