<svg id="svg" fill="#000000" stroke="#000000" width="200px" height="200px" version="1.1" viewBox="144 144 512 512" xmlns="http://www.w3.org/2000/svg">
    <g id="IconSvg_bgCarrier" stroke-width="0"></g>
    <g id="IconSvg_tracerCarrier" stroke-linecap="round" stroke-linejoin="round" stroke="#CCCCCC"></g>
     <g id="IconSvg_iconCarrier">
      <g xmlns="http://www.w3.org/2000/svg">
  <path d="m395.93 301.18h10.078v22h-10.078z"></path>
  <path d="m395.93 340.1h10.078v22h-10.078z"></path>
  <path d="m409.43 326.6h22v10.078h-22z"></path>
  <path d="m370.5 326.6h22v10.078h-22z"></path>
  <path d="m395.8 186.72h10.078v48.703h-10.078z"></path>
  <path d="m331.78 194.17 22 43.445-8.9883 4.5508-22-43.445z"></path>
  <path d="m266.11 242.26 42.523 23.73-4.9102 8.7969-42.523-23.73z"></path>
  <path d="m239.26 300.91 46.988 12.805-2.6484 9.7227-46.988-12.805z"></path>
  <path d="m474.39 195.19 8.9961 4.5508-21.988 43.453-8.9961-4.5508z"></path>
  <path d="m540.05 243.29 4.9102 8.7969-42.523 23.734-4.9102-8.7969z"></path>
  <path d="m569.57 311.65-46.988 12.805-2.6484-9.7227 46.988-12.805z"></path>
  <path d="m583.7 467.91v-104.12h-69.457c-1.6328-61.09-51.801-110.3-113.28-110.3-61.859 0-112.27 49.812-113.31 111.43-3.9336-0.72656-7.9297-1.1328-11.969-1.1328-36.098 0-65.461 29.367-65.461 65.461s29.367 65.461 65.461 65.461c24.887 0 47.641-14.379 58.598-36.355 5.4922 4.0039 11.348 7.6016 17.598 10.609v49.254c-8.6562 0.54297-15.773 6.5938-17.914 14.715h-101.07v46.602h119.24v27.859h97.402v-39.465l87.41 43.301-20.57-124.98-51.777 42.914c-2.8125-5.6055-8.1484-9.6992-14.551-10.734v-49.449c11.062-5.3242 20.957-12.363 29.527-20.641v19.582l104.12-0.003906zm-10.078-10.074h-83.969v-20.602c14.207-17.895 22.957-39.91 24.418-63.371h59.551zm-297.94 26.801c-30.539 0-55.383-24.848-55.383-55.383s24.848-55.383 55.383-55.383c4.1602 0 8.2461 0.59375 12.258 1.5078 2.2539 29.797 16.246 57.203 38.266 76.555-8.8672 19.691-28.734 32.703-50.523 32.703zm-32.715 84.832v-26.449h91c2.168 8.2031 9.4023 14.309 18.168 14.746v11.703zm119.24-11.609h12.672l-12.672 9.5977zm0 22.238 29.352-22.238h25.684l-48.531 39.469h-6.5039zm77.25-2.418-24.844 19.648h-29.941l48.531-39.469h6.2461l0.003906 19.82zm-8.6055 19.648 8.6055-6.8047v6.8047zm92.953-3.8359-72.805-36.078c8.1133-1.7227 14.332-8.4219 15.477-16.738l42.797-35.469zm-67.133-55.512c0 5.4062-4.3984 9.8047-9.8047 9.8047h-93.754c-5.4062 0-9.8047-4.3984-9.8047-9.8047 0-5.4023 4.3984-9.8008 9.8047-9.8008h93.75c5.4102-0.003906 9.8086 4.3945 9.8086 9.8008zm-49.652-19.879h-12.113v-129.85h12.105v129.85zm35.934-56.945-2.9883 1.3359v55.617h-22.879l0.003906-139.94h-32.262v139.93h-22.871v-55.617l-2.9883-1.3359c-37.23-16.609-61.289-53.625-61.289-94.297 0-56.949 46.332-103.28 103.28-103.28 56.949 0 103.28 46.332 103.28 103.28 0 40.68-24.055 77.691-61.289 94.305z"></path>
 </g>

      </g>
      </svg>