<svg id="svg" fill="#000000" stroke="#000000" width="200px" height="200px" version="1.1" viewBox="144 144 512 512" xmlns="http://www.w3.org/2000/svg">
    <g id="IconSvg_bgCarrier" stroke-width="0"></g>
    <g id="IconSvg_tracerCarrier" stroke-linecap="round" stroke-linejoin="round" stroke="#CCCCCC"></g>
     <g id="IconSvg_iconCarrier">
      <g xmlns="http://www.w3.org/2000/svg">
  <path d="m423.61 360.64c-0.875 0-1.7539-0.14844-2.6055-0.44922-3.1484-1.1016-5.2656-4.0742-5.2656-7.4219v-31.488h-31.488c-13.02 0-23.617-10.598-23.617-23.617v-110.21c0-13.02 10.598-23.617 23.617-23.617h157.44c13.02 0 23.617 10.598 23.617 23.617v110.21c0 13.02-10.598 23.617-23.617 23.617h-82.812l-29.117 36.406c-1.5234 1.8984-3.8047 2.9531-6.1523 2.9531zm-39.359-181.05c-4.3359 0-7.8711 3.5273-7.8711 7.8711v110.21c0 4.3438 3.5352 7.8711 7.8711 7.8711h39.359c4.3438 0 7.8711 3.5195 7.8711 7.8711v16.918l17.469-21.836c1.4961-1.8633 3.7578-2.9492 6.1484-2.9492h86.594c4.3359 0 7.8711-3.5273 7.8711-7.8711v-110.21c0-4.3438-3.5352-7.8711-7.8711-7.8711z"></path>
  <path d="m502.34 203.2h31.488v15.742h-31.488z"></path>
  <path d="m470.85 203.2h15.742v15.742h-15.742z"></path>
  <path d="m392.12 203.2h62.977v15.742h-62.977z"></path>
  <path d="m392.12 234.69h141.7v15.742h-141.7z"></path>
  <path d="m392.12 266.18h141.7v15.742h-141.7z"></path>
  <path d="m455.1 620.41h15.742v15.742h-15.742z"></path>
  <path d="m620.41 636.16h-133.82v-15.742h125.95v-15.742l-425.09-0.003906v15.742h251.91v15.742l-259.78 0.003906c-4.3438 0-7.8711-3.5195-7.8711-7.8711v-31.488c0-4.3516 3.5273-7.8711 7.8711-7.8711h440.83c4.3438 0 7.8711 3.5195 7.8711 7.8711v31.488c0.003906 4.3516-3.5234 7.8711-7.8711 7.8711z"></path>
  <path d="m604.67 573.18h-409.35c-13.02 0-23.617-10.598-23.617-23.617l0.003907-314.88c0-13.02 10.598-23.617 23.617-23.617h173.18v15.742h-173.19c-4.3359 0-7.8711 3.5273-7.8711 7.8711v314.88c0 4.3438 3.5352 7.8711 7.8711 7.8711h409.34c4.3359 0 7.8711-3.5273 7.8711-7.8711l0.003907-314.88c0-4.3438-3.5352-7.8711-7.8711-7.8711h-47.23l-0.003906-15.746h47.23c13.02 0 23.617 10.598 23.617 23.617v314.88c0.003906 13.016-10.594 23.613-23.613 23.613z"></path>
  <path d="m218.94 376.38h-15.742v-125.95c0-4.3516 3.5273-7.8711 7.8711-7.8711h157.44v15.742h-149.57z"></path>
  <path d="m203.2 392.12h15.742v15.742h-15.742z"></path>
  <path d="m588.93 541.7h-377.86c-4.3438 0-7.8711-3.5195-7.8711-7.8711v-110.21h15.742v102.34h362.11v-267.65h-23.617v-15.742h31.488c4.3438 0 7.8711 3.5195 7.8711 7.8711v283.39c0.003906 4.3516-3.5234 7.8711-7.8711 7.8711z"></path>
  <path d="m400 430.96c-43.406 0-78.719-35.312-78.719-78.719 0-28 15.066-54.113 39.32-68.156l7.8867 13.617c-19.406 11.238-31.465 32.133-31.465 54.535 0 34.723 28.254 62.977 62.977 62.977s62.977-28.254 62.977-62.977c0-10.988-2.8672-21.797-8.2891-31.262l13.656-7.8242c6.7852 11.84 10.375 25.359 10.375 39.086 0 43.398-35.312 78.723-78.719 78.723z"></path>
  <path d="m494.46 541.7h-188.93c-4.3438 0-7.8711-3.5195-7.8711-7.8711v-62.977c0-30.379 24.719-55.105 55.105-55.105h94.465c30.387 0 55.105 24.727 55.105 55.105v62.977c-0.003906 4.3516-3.5312 7.8711-7.8789 7.8711zm-181.05-15.746h173.18v-55.105c0-21.703-17.656-39.359-39.359-39.359l-94.465 0.003906c-21.703 0-39.359 17.656-39.359 39.359z"></path>
  <path d="m234.03 274.05h16.398v15.742h-16.398z"></path>
  <path d="m266.18 274.05h39.359v15.742h-39.359z"></path>
  <path d="m234.03 305.54h16.398v15.742h-16.398z"></path>
  <path d="m266.18 305.54h39.359v15.742h-39.359z"></path>
  <path d="m549.57 604.67h-299.14c-4.3438 0-7.8711-3.5195-7.8711-7.8711v-31.488c0-4.3516 3.5273-7.8711 7.8711-7.8711h299.14c4.3438 0 7.8711 3.5195 7.8711 7.8711v31.488c0 4.3516-3.5234 7.8711-7.8711 7.8711zm-291.27-15.746h283.39v-15.742h-283.39z"></path>
 </g>

      </g>
      </svg>