<svg id="svg" fill="#000000" stroke="#000000" width="200px" height="200px" version="1.1" viewBox="144 144 512 512" xmlns="http://www.w3.org/2000/svg">
    <g id="IconSvg_bgCarrier" stroke-width="0"></g>
    <g id="IconSvg_tracerCarrier" stroke-linecap="round" stroke-linejoin="round" stroke="#CCCCCC"></g>
     <g id="IconSvg_iconCarrier">
      <g xmlns="http://www.w3.org/2000/svg">
  <path d="m628.29 163.84h-314.88c-4.3477 0-7.8711 3.5234-7.8711 7.8711v103.95c-16.043 4.7656-26.121 18.145-23.066 30.742 0.011719 0.042968-0.003906 0.085937 0.007812 0.12891l14.352 56.488-45.578 6.6836c-49.836 7.3555-87.414 50.875-87.414 101.22v94.391c0 39.062 31.785 70.848 70.848 70.848h173.18c13.023 0 23.617-10.594 23.617-23.617v-7.8711c0-7.082-2.3477-13.625-6.3125-18.891 3.832-2.875 6.3164-7.4531 6.3164-12.598h196.8c4.3477 0 7.8711-3.5234 7.8711-7.8711v-393.6c0-4.3477-3.5273-7.875-7.8711-7.875zm-318.11 126.84c2.2305-0.625 4.3047-0.88281 6.1641-0.88281 3.1445 0 5.6758 0.73438 7.3047 1.6641 1.3906 0.80078 2.2461 1.7539 2.5117 2.7734 0.10156 0.39844 0.12109 0.84766 0.058594 1.3281-0.042969 0.34375-0.17578 0.71875-0.30078 1.0898-0.050781 0.15234-0.058594 0.28906-0.125 0.44531-1.2617 3.0664-5.1211 6.793-11.172 8.7969-0.30859 0.10156-0.58203 0.23047-0.90234 0.32422-6 1.6875-10.883 0.69531-13.469-0.78125-1.3789-0.78906-2.2188-1.7344-2.5117-2.8086-0.77344-3.207 3.6836-9.4336 12.441-11.949zm45.852 121.27 0.75 2.9688c0 0.003907 0.003906 0.007813 0.003906 0.011719l4.2031 16.562h-30.5l-1.3359-5.2578c-0.003906-0.023438 0-0.042969-0.003906-0.0625l-14.879-58.566c-0.007812-0.03125-0.03125-0.054687-0.039062-0.085937l-11.43-44.969c0.0625 0.007813 0.13281-0.003906 0.19922 0.003906 1.4688 0.19531 2.9609 0.3125 4.4883 0.3125 0.62109 0 1.2617-0.10156 1.8906-0.13281 0.57812-0.03125 1.1445-0.066407 1.7305-0.12109 2.2773-0.22266 4.5742-0.57812 6.875-1.2227 0.015625-0.007813 0.03125-0.011719 0.046875-0.015625 2.3398-0.67188 4.5117-1.5703 6.5781-2.582 0.66406-0.32422 1.2578-0.69922 1.8906-1.0508 1.3633-0.76172 2.6562-1.5703 3.8672-2.4648 0.30859-0.23047 0.69531-0.39844 0.99609-0.63281zm5.4766-42.598 4.1406-0.61328c0.73828-0.16016 1.5508-0.22266 2.7031-0.22266 8.2031 0 15.164 6.8438 15.848 15.57v0.011719c0.70703 8.8555-4.9102 16.699-13.062 18.246-0.39844 0.074218-0.79297 0.17969-1.1758 0.32031l-0.035157 0.011719zm54.234 203.84h-125.95c-4.3477 0-7.8711 3.5234-7.8711 7.8711 0 4.3477 3.5234 7.8711 7.8711 7.8711h110.21c8.6836 0 15.742 7.0625 15.742 15.742v7.8711c0 4.3398-3.5312 7.8711-7.8711 7.8711l-173.18 0.003906c-30.387 0-55.105-24.719-55.105-55.105v-94.387c0-42.605 31.801-79.422 73.957-85.652l47.188-6.918 11.367 44.734-24.938 8.8516c-3.6094 1.2812-5.7734 4.9766-5.125 8.7539 0.65234 3.7812 3.9258 6.5391 7.7578 6.5391h110.21c8.6836 0 15.742 7.0625 15.742 15.742v15.742l-125.95 0.003906c-4.3477 0-7.8711 3.5234-7.8711 7.8711s3.5234 7.8711 7.8711 7.8711h125.95c8.6836 0 15.742 7.0625 15.742 15.742v7.8711c0 4.3398-3.5312 7.8711-7.8711 7.8711h-23.617l-110.21 0.003907c-4.3477 0-7.8711 3.5234-7.8711 7.8711 0 4.3477 3.5234 7.8711 7.8711 7.8711h110.21c8.6836 0 15.742 7.0625 15.742 15.742zm204.67-15.746h-188.93c0-5.8398-1.5938-11.309-4.3789-16 11.367-1.6953 20.121-11.523 20.121-23.359v-7.8711c0-11.836-6.5664-22.168-16.242-27.543 0.32422-1.2617 0.5-2.5859 0.5-3.9453v-15.742c0-17.363-14.125-31.488-31.488-31.488h-22.766l-3.4219-13.488 0.89844-0.32031c15.723-3.3164 26.512-18.164 25.188-34.828-1.3242-16.871-15.184-30.086-31.547-30.086-1.5312 0-3.5898 0.066406-5.4766 0.47656l-5.2969 0.78125-16.145-63.625c-0.003906-0.003907-0.003906-0.011719-0.003906-0.015626l-0.003907-0.015624c-0.003906-0.007813-0.011719-0.015626-0.011719-0.027344 0-0.007813 0-0.015625-0.003906-0.023438-1.3516-5.1758-4.8828-9.625-9.9297-12.52-3.0273-1.7305-6.5234-2.75-10.203-3.2812v-94.934h299.14z"></path>
  <path d="m518.08 250.43h62.977c4.3477 0 7.8711-3.5234 7.8711-7.8711v-31.488c0-4.3477-3.5234-7.8711-7.8711-7.8711h-62.977c-4.3477 0-7.8711 3.5234-7.8711 7.8711v31.488c0 4.3477 3.5234 7.8711 7.8711 7.8711zm7.8711-31.488h47.23v15.742h-47.23z"></path>
  <path d="m439.36 297.66h141.7c4.3477 0 7.8711-3.5234 7.8711-7.8711 0-4.3477-3.5234-7.8711-7.8711-7.8711l-141.7-0.003906c-4.3477 0-7.8711 3.5234-7.8711 7.8711 0 4.3477 3.5234 7.875 7.8711 7.875z"></path>
  <path d="m439.36 344.89h141.7c4.3477 0 7.8711-3.5234 7.8711-7.8711 0-4.3477-3.5234-7.8711-7.8711-7.8711l-141.7-0.003906c-4.3477 0-7.8711 3.5234-7.8711 7.8711 0 4.3516 3.5234 7.875 7.8711 7.875z"></path>
  <path d="m581.05 376.38h-110.21c-4.3477 0-7.8711 3.5234-7.8711 7.8711s3.5234 7.8711 7.8711 7.8711h110.21c4.3477 0 7.8711-3.5234 7.8711-7.8711s-3.5234-7.8711-7.8711-7.8711z"></path>
  <path d="m581.05 423.61h-110.21c-4.3477 0-7.8711 3.5234-7.8711 7.8711s3.5234 7.8711 7.8711 7.8711h110.21c4.3477 0 7.8711-3.5234 7.8711-7.8711 0-4.3438-3.5234-7.8711-7.8711-7.8711z"></path>
  <path d="m581.05 486.59h-110.21c-4.3477 0-7.8711 3.5234-7.8711 7.8711 0 4.3477 3.5234 7.8711 7.8711 7.8711h110.21c4.3477 0 7.8711-3.5234 7.8711-7.8711 0-4.3438-3.5234-7.8711-7.8711-7.8711z"></path>
 </g>

      </g>
      </svg>