<svg id="svg" fill="#000000" stroke="#000000" width="200px" height="200px" version="1.1" viewBox="144 144 512 512" xmlns="http://www.w3.org/2000/svg">
    <g id="IconSvg_bgCarrier" stroke-width="0"></g>
    <g id="IconSvg_tracerCarrier" stroke-linecap="round" stroke-linejoin="round" stroke="#CCCCCC"></g>
     <g id="IconSvg_iconCarrier">
      <g xmlns="http://www.w3.org/2000/svg">
  <path d="m573.18 429.91-36.527-11.57v-0.003906c-15.238-4.8281-31.598-4.8281-46.84 0l-36.523 11.574c-5.1367 1.6211-9.625 4.8398-12.809 9.1836-3.1875 4.3477-4.9023 9.5938-4.9062 14.98v72.977c-0.003906 27.508 14.551 52.961 38.262 66.91 6.0625 3.543 39.359 18.344 39.359 18.344s27.078-11.258 39.359-18.344c23.547-14.109 38.043-39.465 38.258-66.91v-72.977c0.003906-5.375-1.7031-10.617-4.8711-14.961-3.1719-4.3438-7.6406-7.5664-12.762-9.2031zm-7.3203 60.93-62.977 62.977v-0.003906c-2.2344 2.25-5.2539 3.5469-8.4258 3.6211-3.2773 0.007812-6.4219-1.293-8.7344-3.6211l-25.113-24.875c-4.6875-4.8477-4.625-12.559 0.14453-17.328 4.7695-4.7695 12.48-4.8359 17.332-0.14844l15.742 15.742 54.082-54.082v0.003906c4.8477-4.6875 12.559-4.6211 17.328 0.14844 4.7695 4.7656 4.8359 12.48 0.14844 17.328z"></path>
  <path d="m512.88 645.21-11.809-5.2734c-13.066-5.7461-35.895-15.742-42.508-19.918v0.003907c-32.977-19.355-53.227-54.734-53.215-92.969v-72.977c0.007813-11.797 3.7734-23.285 10.75-32.797 6.9805-9.5117 16.809-16.555 28.059-20.102l36.527-11.57c21.156-6.6953 43.863-6.6953 65.023 0l36.527 11.57h-0.003906c11.254 3.5469 21.082 10.59 28.059 20.102 6.9805 9.5117 10.746 21 10.754 32.797v72.977c-0.011719 38.332-20.238 73.82-53.219 93.359-13.965 7.4883-28.309 14.238-42.98 20.23zm0-244.03c-9.3477-0.003907-18.641 1.4297-27.551 4.25l-36.527 11.57v0.003906c-7.8789 2.5508-14.754 7.5195-19.645 14.207-4.8906 6.6836-7.5469 14.742-7.5938 23.027v72.973c0 32.363 17.129 62.312 45.031 78.719 4.25 2.5195 19.523 9.6055 40.777 19.051l5.3516 2.3633 5.4336-2.2812-0.003906-0.003906c13.965-5.6953 27.629-12.109 40.938-19.207 27.781-16.52 44.871-46.395 45.027-78.719v-73.055c-0.046875-8.2812-2.7031-16.34-7.5938-23.023-4.8906-6.6875-11.766-11.66-19.645-14.211l-36.527-11.57c-8.7852-2.7812-17.941-4.2148-27.156-4.25z"></path>
  <path d="m337.1 227.52h72.973c3.8711 0 7.0078 3.8711 7.0078 7.0078v0.078125c0 3.8711-3.1367 7.0078-7.0078 7.0078h-72.973c-3.8711 0-7.0078-3.8711-7.0078-7.0078v-0.078125c0-3.8711 3.1367-7.0078 7.0078-7.0078z"></path>
  <path d="m337.1 276.02h129.57c3.8711 0 7.0078 3.8711 7.0078 7.0078v0.078124c0 3.8711-3.1367 7.0078-7.0078 7.0078h-129.57c-3.8711 0-7.0078-3.8711-7.0078-7.0078v-0.078124c0-3.8711 3.1367-7.0078 7.0078-7.0078z"></path>
  <path d="m337.1 347.18h72.973c3.8711 0 7.0078 3.8711 7.0078 7.0078v0.078125c0 3.8711-3.1367 7.0078-7.0078 7.0078h-72.973c-3.8711 0-7.0078-3.8711-7.0078-7.0078v-0.078125c0-3.8711 3.1367-7.0078 7.0078-7.0078z"></path>
  <path d="m337.02 395.59h86.594-0.003907c-5.9414 3.8555-11.254 8.6094-15.742 14.09h-70.848c-3.8906 0-7.0469-3.1523-7.0469-7.043s3.1562-7.0469 7.0469-7.0469z"></path>
  <path d="m337.02 466.83h55.102v14.09h-55.102c-3.8906 0-7.0469-3.1523-7.0469-7.043s3.1562-7.0469 7.0469-7.0469z"></path>
  <path d="m392.12 527.05v2.2031h-55.102c-3.8906 0-7.0469-3.1562-7.0469-7.0469 0-3.8906 3.1562-7.043 7.0469-7.043h55.102z"></path>
  <path d="m525.16 172.42v199.24c-3.9375-0.36719-7.9258-0.55078-11.965-0.55078-3.8555 0-7.8711 0-11.414 0.55078v-193.5h-299.38v400.53h200.97c1.3633 2.9375 2.8594 5.8242 4.4883 8.6602v-0.003907c2.9414 5.1445 6.2578 10.062 9.918 14.723h-221.12c-4.6758 0-9.1602-1.8594-12.469-5.1641-3.3086-3.3086-5.1641-7.793-5.1641-12.469v-412.02c0-4.6758 1.8555-9.1602 5.1641-12.469 3.3086-3.3047 7.793-5.1641 12.469-5.1641h310.87c4.6758 0 9.1602 1.8594 12.469 5.1641 3.3047 3.3086 5.1641 7.793 5.1641 12.469z"></path>
  <path d="m297.66 489.5-24.719 24.719c-1.0156 1.0977-2.4414 1.7227-3.9375 1.7227-1.4961 0-2.9219-0.625-3.9375-1.7227l-11.414-11.414c-2.1719-2.1758-2.1719-5.6992 0-7.875 2.1758-2.1719 5.6992-2.1719 7.875 0l7.8711 7.8711 20.387-20.859c1.0156-1.0977 2.4414-1.7227 3.9375-1.7227 1.4961 0 2.9219 0.625 3.9375 1.7227 2.0781 2.0898 2.0781 5.4688 0 7.5586z"></path>
  <path d="m275.7 544.84c3.1172 0.007812 6.2266-0.28125 9.2891-0.86719 16.02-3.1094 29.297-14.273 35.117-29.52 5.8203-15.246 3.3594-32.414-6.5117-45.41-9.8672-12.996-25.746-19.977-41.996-18.461-16.25 1.5117-30.566 11.309-37.863 25.906-7.2969 14.594-6.543 31.926 1.9961 45.832 8.5391 13.906 23.648 22.422 39.969 22.52zm-25.27-71.949c6.7031-6.6914 15.801-10.43 25.27-10.391 2.6484 0.003906 5.2852 0.29297 7.8711 0.86328 10.383 2.3633 19.176 9.2305 23.977 18.734 4.8008 9.5039 5.1172 20.652 0.85547 30.414-4.2578 9.7578-12.648 17.109-22.883 20.051s-21.246 1.168-30.039-4.8438c-8.7891-6.0078-14.445-15.621-15.422-26.227-0.97656-10.602 2.8242-21.09 10.371-28.602z"></path>
  <path d="m297.66 369.85-24.719 24.719c-1.0156 1.1016-2.4414 1.7266-3.9375 1.7266-1.4961 0-2.9219-0.625-3.9375-1.7266l-11.414-11.414c-2.1719-2.1719-2.1719-5.6992 0-7.8711 2.1758-2.1758 5.6992-2.1758 7.875 0l7.8711 7.8711 20.387-20.859c1.0156-1.1016 2.4414-1.7266 3.9375-1.7266 1.4961 0 2.9219 0.625 3.9375 1.7266 2.0781 2.0859 2.0781 5.4648 0 7.5547z"></path>
  <path d="m275.7 425.27c3.1172 0.007813 6.2266-0.28516 9.2891-0.86719 16.02-3.1133 29.297-14.273 35.117-29.52 5.8203-15.246 3.3594-32.418-6.5117-45.414-9.8672-12.996-25.746-19.977-41.996-18.461-16.25 1.5156-30.566 11.309-37.863 25.906-7.2969 14.598-6.543 31.926 1.9961 45.836 8.5391 13.906 23.648 22.422 39.969 22.52zm-25.27-72.031c6.7031-6.6875 15.801-10.43 25.27-10.391 2.6484 0.003906 5.2852 0.29688 7.8711 0.86719 10.383 2.3594 19.176 9.2266 23.977 18.73 4.8008 9.5039 5.1172 20.656 0.85547 30.414-4.2578 9.7578-12.648 17.109-22.883 20.051s-21.246 1.168-30.039-4.8398c-8.7891-6.0078-14.445-15.625-15.422-26.227-0.97656-10.605 2.8242-21.09 10.371-28.605z"></path>
  <path d="m297.66 250.43-24.719 24.719c-1.0156 1.0977-2.4414 1.7266-3.9375 1.7266-1.4961 0-2.9219-0.62891-3.9375-1.7266l-11.414-11.414c-2.1719-2.1758-2.1719-5.6992 0-7.8711 2.1758-2.1758 5.6992-2.1758 7.875 0l7.8711 7.8711 20.387-21.176c1.0156-1.1016 2.4414-1.7266 3.9375-1.7266 1.4961 0 2.9219 0.625 3.9375 1.7266 1.0977 1.0117 1.7227 2.4414 1.7227 3.9336 0 1.4961-0.625 2.9258-1.7227 3.9375z"></path>
  <path d="m275.7 305.54c3.1172 0.007813 6.2266-0.28125 9.2891-0.86719 16.02-3.1133 29.297-14.273 35.117-29.52 5.8203-15.246 3.3594-32.414-6.5117-45.41-9.8672-12.996-25.746-19.977-41.996-18.465-16.25 1.5156-30.566 11.312-37.863 25.906-7.2969 14.598-6.543 31.93 1.9961 45.836 8.5391 13.906 23.648 22.422 39.969 22.52zm-25.27-71.871c6.7031-6.6914 15.801-10.43 25.27-10.391 2.6484 0.003906 5.2852 0.29297 7.8711 0.86328 10.383 2.3633 19.176 9.2305 23.977 18.734s5.1172 20.652 0.85547 30.414c-4.2578 9.7578-12.648 17.109-22.883 20.051-10.234 2.9414-21.246 1.1641-30.039-4.8438-8.7891-6.0078-14.445-15.621-15.422-26.227-0.97656-10.602 2.8242-21.09 10.371-28.602z"></path>
 </g>

      </g>
      </svg>