<svg id="svg" fill="#000000" stroke="#000000" width="200px" height="200px" version="1.1" viewBox="144 144 512 512" xmlns="http://www.w3.org/2000/svg">
    <g id="IconSvg_bgCarrier" stroke-width="0"></g>
    <g id="IconSvg_tracerCarrier" stroke-linecap="round" stroke-linejoin="round" stroke="#CCCCCC"></g>
     <g id="IconSvg_iconCarrier">
      <g xmlns="http://www.w3.org/2000/svg">
  <path d="m494.46 384.25c-20.918 0.046875-40.961 8.418-55.699 23.266-14.738 14.852-22.957 34.957-22.848 55.875 0.11328 20.922 8.5469 40.938 23.445 55.629v101.39c-0.015625 3.9961 1.4883 7.8438 4.207 10.77 2.7188 2.9258 6.4453 4.7109 10.43 4.9922 3.9844 0.27734 7.9258-0.96484 11.023-3.4805l29.441-23.617 29.598 23.617h0.003906c2.7695 2.2227 6.2109 3.4414 9.7617 3.4648 2.3516 0.039063 4.6758-0.50391 6.7695-1.5742 2.6797-1.2773 4.9414-3.2852 6.5312-5.793 1.5859-2.5039 2.4336-5.4102 2.4414-8.3789v-101.39c14.898-14.691 23.332-34.707 23.445-55.629 0.10938-20.918-8.1094-41.023-22.848-55.875-14.738-14.848-34.781-23.219-55.703-23.266z"></path>
  <path d="m620.41 163.84h-440.83c-4.1758 0-8.1797 1.6602-11.133 4.6133s-4.6133 6.957-4.6133 11.133v314.88c0 4.1758 1.6602 8.1836 4.6133 11.133 2.9531 2.9531 6.957 4.6133 11.133 4.6133h215.54c-14.477-29.824-14.477-64.641 0-94.465h-152.56c-5.625 0-10.824-3-13.637-7.8711s-2.8125-10.875 0-15.746 8.0117-7.8711 13.637-7.8711h174.6c20.773-20.445 48.801-31.828 77.945-31.656 29.148 0.17188 57.039 11.879 77.574 32.566 20.535 20.688 32.035 48.664 31.992 77.812-0.007813 16.359-3.7227 32.508-10.863 47.23h26.605c4.1758 0 8.1797-1.6602 11.133-4.6133 2.9531-2.9492 4.6133-6.957 4.6133-11.133v-314.88c0-4.1758-1.6602-8.1797-4.6133-11.133s-6.957-4.6133-11.133-4.6133zm-62.977 173.19h-314.88c-5.625 0-10.824-3-13.637-7.875-2.8125-4.8711-2.8125-10.871 0-15.742s8.0117-7.8711 13.637-7.8711h314.88c5.625 0 10.824 3 13.637 7.8711s2.8125 10.871 0 15.742c-2.8125 4.875-8.0117 7.875-13.637 7.875zm0-78.719-314.88-0.003907c-5.625 0-10.824-3-13.637-7.8711-2.8125-4.8711-2.8125-10.871 0-15.742s8.0117-7.875 13.637-7.875h314.88c5.625 0 10.824 3.0039 13.637 7.875s2.8125 10.871 0 15.742c-2.8125 4.8711-8.0117 7.8711-13.637 7.8711z"></path>
 </g>

      </g>
      </svg>