<svg id="svg" fill="#000000" stroke="#000000" width="200px" height="200px" version="1.1" viewBox="144 144 512 512" xmlns="http://www.w3.org/2000/svg">
    <g id="IconSvg_bgCarrier" stroke-width="0"></g>
    <g id="IconSvg_tracerCarrier" stroke-linecap="round" stroke-linejoin="round" stroke="#CCCCCC"></g>
     <g id="IconSvg_iconCarrier">
      <g xmlns="http://www.w3.org/2000/svg">
  <path d="m490.17 508.43-55.473-8.0664-24.812-50.316c-1.8555-3.7617-5.6875-6.1445-9.8828-6.1445-4.1992 0-8.0312 2.3828-9.8828 6.1445l-24.812 50.316-55.477 8.0664c-4.1484 0.60547-7.5977 3.5117-8.8906 7.5-1.2969 3.9883-0.21875 8.3672 2.7852 11.293l40.148 39.168-9.4766 55.301c-0.70703 4.1328 0.99219 8.3125 4.3906 10.777 3.3984 2.4648 7.8945 2.7891 11.609 0.83594l49.617-26.105 49.617 26.105c1.6172 0.85156 3.375 1.2656 5.1328 1.2656 2.2812 0 4.5547-0.71094 6.4766-2.1016 3.3945-2.4648 5.0938-6.6445 4.3906-10.777l-9.4766-55.305 40.145-39.164c3-2.9297 4.082-7.3047 2.7852-11.293-1.3164-3.9883-4.7656-6.8906-8.9141-7.5zm-53.57 46.23c-2.5938 2.5312-3.7773 6.1758-3.168 9.75l6.6836 38.996-34.98-18.406c-1.6055-0.84766-3.3711-1.2656-5.1328-1.2656s-3.5273 0.42188-5.1328 1.2656l-34.98 18.406 6.6836-38.996c0.60938-3.5742-0.57422-7.2188-3.168-9.75l-28.32-27.629 39.129-5.6914c3.5898-0.52344 6.6953-2.7812 8.2969-6.0312l17.492-35.469 17.492 35.469c1.6016 3.2539 4.707 5.5117 8.2969 6.0312l39.129 5.6914z"></path>
  <path d="m633.27 476.95c-1.293-3.9883-4.7461-6.8945-8.8906-7.5l-37.434-5.4453-16.742-33.949c-1.8555-3.7617-5.6875-6.1445-9.8828-6.1445-4.1992 0-8.0312 2.3828-9.8828 6.1445l-16.742 33.949-37.434 5.4453c-4.1484 0.60547-7.5977 3.5117-8.8906 7.5-1.2969 3.9883-0.21875 8.3672 2.7852 11.293l27.094 26.434-6.3945 37.324c-0.70703 4.1328 0.99219 8.3125 4.3906 10.777 3.3945 2.4609 7.8945 2.7891 11.609 0.83594l33.477-17.617 33.477 17.617c1.6172 0.85156 3.375 1.2656 5.1328 1.2656 2.2812 0 4.5547-0.71094 6.4766-2.1016 3.3945-2.4648 5.0938-6.6445 4.3906-10.777l-6.3945-37.324 27.094-26.434c2.9805-2.9258 4.0586-7.3047 2.7617-11.293zm-49.414 25.992c-2.5938 2.5312-3.7773 6.1758-3.168 9.75l3.6055 21.016-18.844-9.9141c-1.6055-0.84766-3.3711-1.2656-5.1328-1.2656s-3.5273 0.42187-5.1328 1.2656l-18.844 9.9141 3.6055-21.016c0.60938-3.5742-0.57422-7.2188-3.168-9.75l-15.262-14.891 21.082-3.0664c3.5898-0.52344 6.6953-2.7812 8.2969-6.0312l9.4219-19.102 9.4219 19.102c1.6016 3.2539 4.707 5.5117 8.2969 6.0312l21.082 3.0664z"></path>
  <path d="m286.04 340.3v20.367c0 27.285 22.18 49.48 49.445 49.48h31.316c2.2773 10.152 11.344 17.766 22.172 17.766h22.055c12.535 0 22.738-10.199 22.738-22.738v-7.168c0-12.535-10.199-22.738-22.738-22.738h-22.055c-8.9844 0-16.746 5.2539-20.438 12.836h-33.051c-15.109 0-27.402-12.309-27.402-27.438v-18.98h0.95703c10.824 0 19.637-8.8086 19.637-19.637v-57.637c0-7.707-4.4727-14.367-10.945-17.582 4.4023-33.461 33.059-59.379 67.668-59.379h29.207c34.609 0 63.266 25.914 67.672 59.375-6.4766 3.2109-10.949 9.8789-10.949 17.582v57.637c0 10.824 8.8086 19.637 19.637 19.637h13.406c19.031 0 34.516-15.484 34.516-34.516v-27.879c0-19.031-15.484-34.516-34.516-34.516h-0.14844c-5.4531-44.652-43.551-79.359-89.625-79.359h-29.207c-46.07 0-84.168 34.707-89.621 79.363h-0.14062c-19.031 0-34.516 15.484-34.516 34.516v27.879c0.007813 15.699 10.555 28.961 24.926 33.129zm102.24 57.707c0-0.38281 0.3125-0.69531 0.69531-0.69531h22.055c0.38281 0 0.69531 0.3125 0.69531 0.69531v7.168c0 0.38281-0.3125 0.69531-0.69531 0.69531h-22.055c-0.38281 0-0.69531-0.3125-0.69531-0.69531zm128.56-118.71v27.879c0 6.8789-5.5938 12.477-12.477 12.477h-11v-52.832h11c6.8789 0 12.477 5.5938 12.477 12.477zm-233.68 0c0-6.8789 5.5938-12.473 12.473-12.473h11v52.828h-11c-6.8789 0-12.473-5.5938-12.473-12.477z"></path>
  <path d="m282.76 514.68 27.094-26.434c3-2.9297 4.082-7.3047 2.7852-11.293-1.293-3.9883-4.7461-6.8945-8.8906-7.5l-37.434-5.4453-16.742-33.949c-1.8555-3.7617-5.6875-6.1445-9.8828-6.1445-4.1992 0-8.0312 2.3828-9.8828 6.1445l-16.742 33.949-37.43 5.4453c-4.1484 0.60547-7.5977 3.5117-8.8945 7.5-1.2969 3.9883-0.21875 8.3672 2.7852 11.293l27.094 26.434-6.3945 37.324c-0.70703 4.1328 0.99219 8.3125 4.3867 10.777 3.3945 2.4609 7.8945 2.7891 11.609 0.83594l33.477-17.617 33.477 17.617c1.6172 0.85156 3.375 1.2656 5.1328 1.2656 2.2812 0 4.5547-0.71094 6.4766-2.1016 3.3945-2.4648 5.0938-6.6445 4.3906-10.777zm-19.539-11.738c-2.5938 2.5312-3.7773 6.1758-3.168 9.75l3.6055 21.016-18.844-9.9141c-1.6055-0.84766-3.3711-1.2656-5.1328-1.2656-1.7617 0-3.5273 0.42187-5.1328 1.2656l-18.844 9.9141 3.6055-21.016c0.60938-3.5742-0.57422-7.2188-3.168-9.75l-15.262-14.891 21.082-3.0664c3.5898-0.52344 6.6953-2.7812 8.2969-6.0312l9.4219-19.102 9.4219 19.102c1.6016 3.2539 4.707 5.5117 8.2969 6.0312l21.082 3.0664z"></path>
 </g>

      </g>
      </svg>