<svg id="svg" fill="#000000" stroke="#000000" width="200px" height="200px" version="1.1" viewBox="144 144 512 512" xmlns="http://www.w3.org/2000/svg">
    <g id="IconSvg_bgCarrier" stroke-width="0"></g>
    <g id="IconSvg_tracerCarrier" stroke-linecap="round" stroke-linejoin="round" stroke="#CCCCCC"></g>
     <g id="IconSvg_iconCarrier">
      <defs xmlns="http://www.w3.org/2000/svg">
  <clipPath id="b">
   <path d="m241 148.09h318v277.91h-318z"></path>
  </clipPath>
  <clipPath id="a">
   <path d="m148.09 585h503.81v66.902h-503.81z"></path>
  </clipPath>
 </defs>
<path xmlns="http://www.w3.org/2000/svg" d="m338.96 593.11h121.81l10.945-27.113c2.1953-5.4414 7.4805-9.0078 13.348-9.0078l128.38 0.003906v-229.9c0-5.293-4.3047-9.5977-9.5977-9.5977h-16.969v13.566c0 6.6445-4.5469 12.426-11.008 13.992l-31.918 7.7266c-1.9609 5.6953-4.1484 11.031-6.5938 16.086l17.062 27.605c3.5352 5.7188 2.6406 13.121-2.1562 17.836l-39.816 39.125c-4.6641 4.582-11.836 5.4453-17.449 2.1016l-28.473-16.945c-4.1758 2-8.4141 3.8047-12.695 5.4062l-0.32031 59.215c-0.16016 29.531-24.344 53.555-53.91 53.555-29.727 0-53.914-24.156-53.914-53.844v-59.133c-4.2109-1.6055-8.4141-3.4297-12.586-5.4531l-28.316 16.895c-5.6211 3.3516-12.797 2.4922-17.465-2.0977l-39.781-39.102c-4.8008-4.7188-5.6875-12.133-2.1406-17.855l17.184-27.695c-2.4961-5.1445-4.7188-10.523-6.6523-16.094l-31.805-7.6953c-6.4609-1.5625-11.008-7.3438-11.008-13.992v-13.207l-16.977 0.003906c-5.293 0-9.5977 4.3047-9.5977 9.5977v229.9h128.12c5.8711 0 11.152 3.5625 13.348 9.0039z"></path>
<g xmlns="http://www.w3.org/2000/svg" clip-path="url(#b)">
  <path d="m474.42 409.79 25.773 15.336 23.703-23.293-15.332-24.812c-2.7695-4.4805-2.8711-10.113-0.26562-14.691 4.2695-7.4961 7.7305-15.891 10.578-25.66 1.4414-4.9492 5.4219-8.75 10.434-9.9648l28.789-6.9688v-32.648l-28.672-6.9375c-5.0273-1.2148-9.0117-5.0352-10.445-10.008-2.668-9.2656-6.2539-17.906-10.652-25.688-2.5898-4.5781-2.4766-10.207 0.29688-14.676l15.445-24.895-23.645-23.242-25.648 15.301c-4.3867 2.6172-9.832 2.7148-14.305 0.25391-7.8398-4.3086-16.422-7.7422-26.23-10.5-4.9727-1.3984-8.8164-5.3516-10.07-10.363l-7.0703-28.242h-33.84l-7.0469 28.141c-1.2578 5.0234-5.1172 8.9844-10.109 10.371-9.3984 2.6133-18.238 6.1602-26.273 10.543-4.4727 2.4414-9.9062 2.332-14.281-0.28125l-25.77-15.41-23.672 23.23 15.324 24.777c2.7695 4.4805 2.875 10.117 0.26562 14.695-4.2734 7.5039-7.7344 15.895-10.578 25.648-1.4414 4.9492-5.4258 8.7539-10.438 9.9648l-28.785 6.957v32.645l28.672 6.9375c5.0273 1.2148 9.0156 5.0352 10.445 10.004 2.668 9.2656 6.2539 17.91 10.652 25.691 2.5898 4.5781 2.4727 10.203-0.29688 14.672l-15.441 24.895 23.645 23.242 25.648-15.301c4.3867-2.6172 9.8281-2.7148 14.305-0.25391 2.0469 1.125 4.1016 2.1875 6.1602 3.1875v-47.812c-22.363-15.863-35.477-40.371-35.477-67.023 0-33.625 21.285-63.965 54.23-77.285 9.0664-3.9727 20.074 3.4531 19.793 13.344v48.902l15.766 12.871 15.762-12.871v-48.902c-0.28125-9.8945 10.727-17.316 19.793-13.344 32.945 13.324 54.234 43.66 54.234 77.285 0 26.672-13.133 51.191-35.52 67.055l-0.25781 48.008c2.0703-0.99219 4.0664-2.1602 6.1602-3.1523 6.8555-3.2383 11.98-1.0781 14.246 0.26953z"></path>
 </g>
<path xmlns="http://www.w3.org/2000/svg" d="m355.45 259.83c-10.363 10.078-16.445 23.512-16.445 37.785 0 19 10.578 36.465 28.293 46.719 4.4453 2.5742 7.1836 7.3203 7.1836 12.457v146.14c0 13.816 11.27 25.055 25.121 25.055 13.781 0 25.051-11.18 25.125-24.922l0.78906-146.35c0.027344-5.1094 2.7617-9.8203 7.1836-12.379 17.715-10.254 28.293-27.719 28.293-46.719 0-14.277-6.082-27.711-16.445-37.785v29.578c0 4.3203-1.9414 8.418-5.2891 11.152l-30.156 24.621c-5.3008 4.3281-12.91 4.3281-18.207 0l-30.156-24.621c-3.3477-2.7344-5.293-6.8281-5.293-11.152v-29.578z"></path>
<g xmlns="http://www.w3.org/2000/svg" clip-path="url(#a)">
  <path d="m148.09 585.79v56.234c0 5.4492 4.4531 9.8828 9.9258 9.8828h483.96c5.4727 0 9.9258-4.4336 9.9258-9.8828v-56.234h-157.12l-10.945 27.109c-2.1953 5.4414-7.4805 9.0078-13.348 9.0078h-141.23c-5.8711 0-11.152-3.5625-13.348-9.0039l-10.945-27.113z"></path>
 </g>

      </g>
      </svg>