<svg id="svg" fill="#000000" stroke="#000000" width="200px" height="200px" version="1.1" viewBox="144 144 512 512" xmlns="http://www.w3.org/2000/svg">
    <g id="IconSvg_bgCarrier" stroke-width="0"></g>
    <g id="IconSvg_tracerCarrier" stroke-linecap="round" stroke-linejoin="round" stroke="#CCCCCC"></g>
     <g id="IconSvg_iconCarrier">
      <g xmlns="http://www.w3.org/2000/svg">
  <path d="m559 336.92c-16.223-17.129-32.547-34.258-48.77-51.289-25.996-27.305-51.891-54.613-77.891-81.918-5.9453-6.3477-11.992-12.594-17.938-18.941-7.3555-7.7578-21.16-7.7578-28.516 0-16.223 17.129-32.547 34.258-48.77 51.289-25.996 27.305-51.891 54.613-77.891 81.918-5.9453 6.3477-11.992 12.594-17.938 18.941-7.2539 7.6562-8.1602 21.059 0 28.516 7.8594 7.2539 20.758 8.1602 28.516 0 16.223-17.129 32.547-34.258 48.77-51.289 25.996-27.305 51.891-54.613 77.891-81.918 5.9453-6.3477 11.992-12.594 17.938-18.941h-28.516c16.223 17.129 32.547 34.258 48.77 51.289 25.996 27.305 51.891 54.613 77.891 81.918 5.9453 6.3477 11.992 12.594 17.938 18.941 7.2539 7.6562 21.262 7.8594 28.516 0 7.5586-8.2617 7.7578-20.355 0-28.516z"></path>
  <path d="m530.48 434.66c-16.223 17.129-32.547 34.258-48.77 51.289-25.996 27.305-51.891 54.613-77.891 81.918-5.9453 6.3477-11.992 12.594-17.938 18.941h28.516c-16.223-17.129-32.547-34.258-48.77-51.289-25.996-27.305-51.891-54.613-77.891-81.918-5.9453-6.3477-11.992-12.594-17.938-18.941-7.2539-7.6562-21.262-7.8594-28.516 0-7.5586 8.2617-7.7578 20.355 0 28.516 16.223 17.129 32.547 34.258 48.77 51.289 25.996 27.305 51.891 54.613 77.891 81.918 5.9453 6.3477 11.992 12.594 17.938 18.941 7.3555 7.7578 21.16 7.7578 28.516 0 16.223-17.129 32.547-34.258 48.77-51.289 25.996-27.305 51.891-54.613 77.891-81.918 5.9453-6.3477 11.992-12.594 17.938-18.941 7.2539-7.6562 8.1602-21.059 0-28.516-7.8594-7.2539-20.758-8.1602-28.516 0z"></path>
 </g>

      </g>
      </svg>