<svg id="svg" fill="#000000" stroke="#000000" width="200px" height="200px" version="1.1" viewBox="144 144 512 512" xmlns="http://www.w3.org/2000/svg">
    <g id="IconSvg_bgCarrier" stroke-width="0"></g>
    <g id="IconSvg_tracerCarrier" stroke-linecap="round" stroke-linejoin="round" stroke="#CCCCCC"></g>
     <g id="IconSvg_iconCarrier">
      <g xmlns="http://www.w3.org/2000/svg">
  <path d="m496.56 273.92c-11.168 0-21.738 3.8828-30.172 11.02-18.375-15.508-45.973-14.605-63.285 2.6992-18.254 18.254-18.254 47.957 0 66.211l56.156 56.156c1.9688 1.9688 4.543 2.9531 7.125 2.9531 2.5781 0 5.1523-0.98438 7.125-2.9531l27.441-27.441c3.9336-3.9336 3.9336-10.312 0-14.246-3.9336-3.9336-10.312-3.9336-14.246 0l-20.32 20.32-49.031-49.031c-10.395-10.398-10.395-27.316 0-37.711 10.398-10.398 27.316-10.395 37.715 0l4.1914 4.1914c3.9336 3.9336 10.312 3.9336 14.246 0l4.1914-4.1914c5.0391-5.0391 11.734-7.8125 18.859-7.8125s13.82 2.7773 18.859 7.8125c5.0391 5.0391 7.8125 11.734 7.8125 18.852 0 7.125-2.7773 13.82-7.8203 18.863l-9.3398 9.3398c-3.9336 3.9336-3.9336 10.312 0 14.254 3.9258 3.9336 10.312 3.9336 14.246 0l9.3438-9.3438c8.8477-8.8438 13.719-20.602 13.719-33.109 0-12.504-4.8711-24.262-13.719-33.105-8.8359-8.8633-20.594-13.727-33.098-13.727z"></path>
  <path d="m279.41 388.45c0 10.617-8.6055 19.223-19.219 19.223-10.613 0-19.219-8.6055-19.219-19.223 0-10.613 8.6055-19.219 19.219-19.219 10.613 0 19.219 8.6055 19.219 19.219"></path>
  <path d="m551.35 223.35h-169.93c-30.754 0-57.219 18.539-68.926 45.004l-63.844 0.003906c-41.559 0.003906-75.367 33.812-75.367 75.375v89.426c0 41.559 33.812 75.371 75.371 75.371h8.4023l-12.395 55.852c-0.91797 4.1211 0.83594 8.3789 4.3945 10.66 1.6641 1.0664 3.5508 1.5977 5.4414 1.5977 2.1445 0 4.2891-0.68359 6.082-2.0391l87.332-66.074 70.625-0.003906c22.547 0 43.23-9.8047 57.516-26.875l63.371 47.941c1.793 1.3594 3.9336 2.0391 6.082 2.0391 1.8906 0 3.7773-0.52734 5.4414-1.5977 3.5586-2.2812 5.3086-6.5391 4.3945-10.66l-12.395-55.863h8.4102c41.555 0 75.363-33.805 75.363-75.359l-0.003906-89.43c-0.007812-41.555-33.816-75.367-75.371-75.367zm55.211 164.8c0 30.441-24.766 55.207-55.211 55.207l-20.965 0.003906c-3.0547 0-5.9492 1.3867-7.8594 3.7695-1.9141 2.3828-2.6406 5.5078-1.9805 8.4883l9.1758 41.371-68.188-51.59c-1.7539-1.3242-3.8828-2.0391-6.082-2.0391h-21.445c-5.5625 0-10.078 4.5156-10.078 10.078s4.5156 10.078 10.078 10.078h18.07l7.9062 5.9805c-10.418 12-25.27 18.883-41.445 18.883l-74.008-0.007812c-2.1953 0-4.3281 0.71484-6.082 2.0391l-68.172 51.582 9.1758-41.363c0.66406-2.9844-0.066407-6.1055-1.9805-8.4883-1.9102-2.3828-4.8008-3.7734-7.8594-3.7734h-20.957c-30.445 0.003906-55.215-24.766-55.215-55.211v-89.426c0-30.445 24.773-55.219 55.219-55.219h58.176c-0.45703 3.3438-0.77734 6.7344-0.77734 10.203v18.152c0 5.5625 4.5156 10.078 10.078 10.078s10.078-4.5156 10.078-10.078v-18.152c0-30.441 24.766-55.207 55.211-55.207h169.93c30.441-0.007813 55.207 24.762 55.207 55.207z"></path>
  <path d="m406.93 443.36h-25.508c-30.445 0-55.211-24.766-55.211-55.207v-44.836c0-5.5625-4.5156-10.078-10.078-10.078s-10.078 4.5156-10.078 10.078v44.836c0 41.555 33.812 75.359 75.363 75.359h25.508c5.5625 0 10.078-4.5156 10.078-10.078 0.003906-5.5625-4.5117-10.074-10.074-10.074z"></path>
 </g>

      </g>
      </svg>