<svg id="svg" fill="#000000" stroke="#000000" width="200px" height="200px" version="1.1" viewBox="144 144 512 512" xmlns="http://www.w3.org/2000/svg">
    <g id="IconSvg_bgCarrier" stroke-width="0"></g>
    <g id="IconSvg_tracerCarrier" stroke-linecap="round" stroke-linejoin="round" stroke="#CCCCCC"></g>
     <g id="IconSvg_iconCarrier">
      <g xmlns="http://www.w3.org/2000/svg">
  <path d="m400 488.47c-81.465 0-145.6-78.797-148.27-82.172h-0.003907c-2.9453-3.6836-2.9453-8.9141 0-12.598 2.6719-3.375 66.805-82.168 148.27-82.168 81.465 0 145.6 78.793 148.27 82.168 2.9492 3.6836 2.9492 8.9141 0 12.598-2.6719 3.375-66.805 82.172-148.27 82.172zm-127.06-88.469c16.523 17.984 67.914 68.316 127.06 68.316 59.145 0 110.54-50.332 127.06-68.316-16.523-17.988-67.863-68.316-127.06-68.316-59.199 0-110.54 50.328-127.06 68.316z"></path>
  <path d="m400 448.82c-12.949 0-25.367-5.1406-34.523-14.297-9.1523-9.1562-14.297-21.574-14.297-34.52 0-12.949 5.1445-25.367 14.297-34.523 9.1562-9.1523 21.574-14.297 34.523-14.297 12.945 0 25.363 5.1445 34.52 14.297 9.1562 9.1562 14.297 21.574 14.297 34.523-0.011718 12.941-5.1602 25.352-14.312 34.504s-21.562 14.301-34.504 14.312zm0-77.484c-7.6055 0-14.895 3.0195-20.273 8.3945-5.375 5.3789-8.3945 12.668-8.3945 20.273 0 7.6016 3.0195 14.895 8.3945 20.27 5.3789 5.375 12.668 8.3945 20.273 8.3945 7.6016 0 14.895-3.0195 20.27-8.3945s8.3945-12.668 8.3945-20.27c0-7.6055-3.0195-14.895-8.3945-20.273-5.375-5.375-12.668-8.3945-20.27-8.3945z"></path>
 </g>

      </g>
      </svg>